<svg width="216" height="85" viewBox="0 0 216 85" fill="none" xmlns="http://www.w3.org/2000/svg">
<path d="M28 50.35C25.7667 50.35 23.9833 49.9333 22.65 49.1C21.3167 48.2667 20.4833 47.4833 20.15 46.75H20.05C20.1167 48.3833 20.15 49.25 20.15 49.35C20.15 49.7833 19.9167 50 19.45 50H17.75C17.3167 50 17.1 49.7833 17.1 49.35V41.85C17.1 41.4167 17.3167 41.2 17.75 41.2H19.7C20.1667 41.2 20.4 41.4167 20.4 41.85V42.85C20.7333 43.85 21.4333 44.7667 22.5 45.6C23.7667 46.6 25.35 47.1 27.25 47.1C30.9833 47.1 32.85 45.8 32.85 43.2C32.85 42.3 32.3333 41.5833 31.3 41.05C30.2667 40.4833 29 40.0167 27.5 39.65C26.0333 39.2833 24.5667 38.8667 23.1 38.4C21.6333 37.9333 20.3833 37.1833 19.35 36.15C18.3167 35.0833 17.8 33.75 17.8 32.15C17.8 29.9833 18.5833 28.2667 20.15 27C21.7167 25.7 23.7167 25.05 26.15 25.05C29.45 25.05 31.8167 26.0167 33.25 27.95H33.35C33.2833 26.75 33.25 26.1333 33.25 26.1C33.25 25.6667 33.4667 25.45 33.9 25.45H35.5C35.9333 25.45 36.15 25.6667 36.15 26.1V33.05C36.15 33.4833 35.9333 33.7 35.5 33.7H33.55C33.0833 33.7 32.85 33.4833 32.85 33.05V32.35C32.85 31.45 32.3167 30.5667 31.25 29.7C30.2167 28.8 28.8667 28.35 27.2 28.35C25.5333 28.35 24.2333 28.7 23.3 29.4C22.3667 30.1 21.9 31.0167 21.9 32.15C21.9 33.25 22.4167 34.1167 23.45 34.75C24.5167 35.35 25.8 35.8333 27.3 36.2C28.8 36.5333 30.3 36.9167 31.8 37.35C33.3 37.7833 34.5667 38.5 35.6 39.5C36.6667 40.5 37.2 41.8833 37.2 43.65C37.2 45.4167 36.4333 46.9833 34.9 48.35C33.4 49.6833 31.1 50.35 28 50.35ZM66.8734 50H62.5234C61.0901 50 60.3734 49.3 60.3734 47.9V46.05H60.2234C58.8568 48.9167 56.2568 50.35 52.4234 50.35C49.7568 50.35 47.6401 49.5667 46.0734 48C44.5401 46.4 43.7568 44.2833 43.7234 41.65V28.75H40.8734C40.4734 28.75 40.2734 28.55 40.2734 28.15V26C40.2734 25.6 40.4734 25.4 40.8734 25.4H45.6734C47.1068 25.4 47.8234 26.1 47.8234 27.5V40.65C47.8234 42.5833 48.2901 44.0833 49.2234 45.15C50.1568 46.2167 51.5234 46.75 53.3234 46.75C55.7568 46.75 57.6734 45.85 59.0734 44.05C59.6734 43.2833 59.9734 42.7667 59.9734 42.5V28.75H57.2734C56.8734 28.75 56.6734 28.55 56.6734 28.15V26C56.6734 25.6 56.8734 25.4 57.2734 25.4H63.4734C63.8734 25.4 64.0734 25.6 64.0734 26V46.65H66.8734C67.3068 46.65 67.5234 46.85 67.5234 47.25V49.4C67.5234 49.8 67.3068 50 66.8734 50ZM92.7633 38.2H74.7633C74.8966 40.9667 75.7633 43.1 77.3633 44.6C78.9966 46.1 80.8299 46.85 82.8633 46.85C84.8966 46.85 86.6299 46.4167 88.0633 45.55C89.5299 44.6833 90.5133 43.8333 91.0133 43C91.2799 42.6667 91.5799 42.6167 91.9133 42.85L93.2633 44.2C93.4633 44.4 93.5633 44.5833 93.5633 44.75C93.5633 44.8833 93.4799 45.0667 93.3133 45.3C93.1799 45.5333 92.8799 45.9 92.4133 46.4C91.9466 46.9 91.2799 47.4667 90.4133 48.1C89.5799 48.7333 88.4799 49.2667 87.1133 49.7C85.7799 50.1333 84.3466 50.35 82.8133 50.35C79.3133 50.35 76.3799 49.2 74.0133 46.9C71.6799 44.6 70.5133 41.5167 70.5133 37.65C70.5133 33.75 71.6799 30.6833 74.0133 28.45C76.3466 26.1833 79.1966 25.05 82.5633 25.05C85.9633 25.05 88.6299 26.15 90.5633 28.35C92.4966 30.5167 93.4633 33.45 93.4633 37.15C93.4633 37.2833 93.4633 37.4167 93.4633 37.55C93.4633 37.9833 93.2299 38.2 92.7633 38.2ZM89.3133 35.15C89.2133 33.0833 88.5633 31.4333 87.3633 30.2C86.1633 28.9667 84.5633 28.35 82.5633 28.35C80.5633 28.35 78.8466 28.9167 77.4133 30.05C75.9799 31.1833 75.1299 32.8833 74.8633 35.15H89.3133ZM111.183 50H107.833C107.499 50 107.266 49.95 107.133 49.85C106.999 49.7167 106.866 49.4667 106.733 49.1L98.7828 28.75H95.9828C95.5828 28.75 95.3828 28.55 95.3828 28.15V26C95.3828 25.6 95.5828 25.4 95.9828 25.4H105.283C105.683 25.4 105.883 25.6 105.883 26V28.15C105.883 28.55 105.683 28.75 105.283 28.75H103.083L109.483 45.6H109.583L116.083 28.75H113.833C113.433 28.75 113.233 28.55 113.233 28.15V26C113.233 25.6 113.433 25.4 113.833 25.4H123.133C123.566 25.4 123.783 25.6 123.783 26V28.15C123.783 28.55 123.566 28.75 123.133 28.75H120.383L112.333 49.1C112.133 49.7 111.749 50 111.183 50ZM147.304 38.2H129.304C129.438 40.9667 130.304 43.1 131.904 44.6C133.538 46.1 135.371 46.85 137.404 46.85C139.438 46.85 141.171 46.4167 142.604 45.55C144.071 44.6833 145.054 43.8333 145.554 43C145.821 42.6667 146.121 42.6167 146.454 42.85L147.804 44.2C148.004 44.4 148.104 44.5833 148.104 44.75C148.104 44.8833 148.021 45.0667 147.854 45.3C147.721 45.5333 147.421 45.9 146.954 46.4C146.488 46.9 145.821 47.4667 144.954 48.1C144.121 48.7333 143.021 49.2667 141.654 49.7C140.321 50.1333 138.888 50.35 137.354 50.35C133.854 50.35 130.921 49.2 128.554 46.9C126.221 44.6 125.054 41.5167 125.054 37.65C125.054 33.75 126.221 30.6833 128.554 28.45C130.888 26.1833 133.738 25.05 137.104 25.05C140.504 25.05 143.171 26.15 145.104 28.35C147.038 30.5167 148.004 33.45 148.004 37.15C148.004 37.2833 148.004 37.4167 148.004 37.55C148.004 37.9833 147.771 38.2 147.304 38.2ZM143.854 35.15C143.754 33.0833 143.104 31.4333 141.904 30.2C140.704 28.9667 139.104 28.35 137.104 28.35C135.104 28.35 133.388 28.9167 131.954 30.05C130.521 31.1833 129.671 32.8833 129.404 35.15H143.854ZM155.509 46.35C155.975 46.7833 156.209 47.3333 156.209 48C156.209 48.6667 155.975 49.2333 155.509 49.7C155.075 50.1333 154.525 50.35 153.859 50.35C153.192 50.35 152.625 50.1333 152.159 49.7C151.692 49.2333 151.459 48.6667 151.459 48C151.459 47.3333 151.692 46.7833 152.159 46.35C152.625 45.8833 153.192 45.65 153.859 45.65C154.525 45.65 155.075 45.8833 155.509 46.35ZM182.327 44.2C182.527 44.3667 182.627 44.5333 182.627 44.7C182.627 44.8333 182.544 45.0333 182.377 45.3C182.244 45.5333 181.927 45.9 181.427 46.4C180.96 46.9 180.294 47.4667 179.427 48.1C178.594 48.7333 177.494 49.2667 176.127 49.7C174.794 50.1333 173.36 50.35 171.827 50.35C168.327 50.35 165.394 49.2 163.027 46.9C160.694 44.6 159.527 41.5167 159.527 37.65C159.527 33.75 160.694 30.6833 163.027 28.45C165.394 26.1833 168.277 25.05 171.677 25.05C175.077 25.05 177.644 26.2833 179.377 28.75H179.427L179.377 26C179.377 25.5667 179.594 25.35 180.027 25.35H181.927C182.327 25.35 182.527 25.5667 182.527 26V34.5C182.527 34.9 182.327 35.1 181.927 35.1H179.627C179.227 35.1 179.027 34.9 179.027 34.5V33.65C178.994 32.45 178.31 31.3 176.977 30.2C175.644 29.1 173.944 28.55 171.877 28.55C169.844 28.55 167.977 29.3667 166.277 31C164.577 32.6333 163.727 34.8667 163.727 37.7C163.727 40.5 164.56 42.7333 166.227 44.4C167.894 46.0333 169.76 46.85 171.827 46.85C173.894 46.85 175.644 46.4167 177.077 45.55C178.544 44.65 179.527 43.7833 180.027 42.95C180.26 42.55 180.544 42.5 180.877 42.8L182.327 44.2ZM207.88 46.85C205.547 49.1833 202.563 50.35 198.93 50.35C195.297 50.35 192.313 49.2 189.98 46.9C187.647 44.5667 186.48 41.4833 186.48 37.65C186.48 33.7833 187.663 30.7167 190.03 28.45C192.397 26.1833 195.363 25.05 198.93 25.05C202.53 25.05 205.497 26.2 207.83 28.5C210.197 30.7667 211.38 33.8167 211.38 37.65C211.38 41.45 210.213 44.5167 207.88 46.85ZM190.68 37.65C190.68 40.3833 191.48 42.6 193.08 44.3C194.68 46 196.63 46.85 198.93 46.85C201.263 46.85 203.23 46 204.83 44.3C206.43 42.6 207.23 40.3833 207.23 37.65C207.23 34.9167 206.413 32.7167 204.78 31.05C203.18 29.3833 201.247 28.55 198.98 28.55C196.713 28.55 194.763 29.3833 193.13 31.05C191.497 32.7167 190.68 34.9167 190.68 37.65Z" fill="#AD8C73"/>
<path d="M77 51.5C77 69.2014 15.3852 95.3119 19.231 48.73C26.5134 -39.4768 0 50.9246 0 33.2232C0 15.5219 26.5134 -39.4768 19.231 48.73C11.9486 136.937 77 33.7986 77 51.5Z" fill="#AD8C73"/>
</svg>
